<svg width="153" height="33" viewBox="0 0 153 33" fill="none" xmlns="http://www.w3.org/2000/svg">
<path d="M7.56566 24.4715C6.79054 25.2466 5.85688 25.6342 4.76466 25.6342C3.67245 25.6342 2.73879 25.2466 1.96367 24.4715C1.18855 23.6964 0.800994 22.7627 0.800994 21.6705C0.800994 20.5783 1.17094 19.6446 1.91082 18.8695C2.68594 18.0944 3.63722 17.7068 4.76466 17.7068C5.85688 17.7068 6.79054 18.0944 7.56566 18.8695C8.34078 19.6446 8.72834 20.5783 8.72834 21.6705C8.72834 22.7627 8.34078 23.6964 7.56566 24.4715ZM20.9789 1.32367C23.2112 1.32367 25.0715 2.06779 26.5597 3.55601C28.0705 5.04424 28.8259 6.89325 28.8259 9.10304C28.8259 11.2903 28.0705 13.1393 26.5597 14.6501C25.0715 16.1383 23.2112 16.8824 20.9789 16.8824H16.1421V25H12.2525V1.32367H20.9789ZM20.9789 13.2295C22.1289 13.2295 23.0759 12.8462 23.82 12.0795C24.5641 11.2903 24.9362 10.2981 24.9362 9.10304C24.9362 7.90795 24.5641 6.92707 23.82 6.16041C23.0759 5.3712 22.1289 4.97659 20.9789 4.97659H16.1421V13.2295H20.9789ZM43.1564 8.08834H46.8093V25H43.1564V22.5647C41.7809 24.4814 39.8079 25.4397 37.2373 25.4397C34.9148 25.4397 32.9305 24.5828 31.2844 22.8691C29.6383 21.1329 28.8153 19.0245 28.8153 16.5442C28.8153 14.0412 29.6383 11.9329 31.2844 10.2192C32.9305 8.50549 34.9148 7.64864 37.2373 7.64864C39.8079 7.64864 41.7809 8.59569 43.1564 10.4898V8.08834ZM33.9903 20.4339C35.005 21.4486 36.279 21.9559 37.8123 21.9559C39.3456 21.9559 40.6196 21.4486 41.6343 20.4339C42.649 19.3966 43.1564 18.1 43.1564 16.5442C43.1564 14.9883 42.649 13.703 41.6343 12.6883C40.6196 11.6511 39.3456 11.1324 37.8123 11.1324C36.279 11.1324 35.005 11.6511 33.9903 12.6883C32.9756 13.703 32.4682 14.9883 32.4682 16.5442C32.4682 18.1 32.9756 19.3966 33.9903 20.4339ZM61.4509 8.08834H65.3405L58.8465 25.5412C57.2229 29.9157 54.472 31.9902 50.5936 31.7647V28.3485C51.7436 28.4162 52.6681 28.1681 53.3671 27.6044C54.0661 27.0632 54.6411 26.2064 55.0921 25.0338L55.2612 24.6956L48.0906 8.08834H52.0818L57.1215 20.3662L61.4509 8.08834Z" fill="white"/>
<path d="M77.8055 25.4735C74.2653 25.4735 71.3227 24.301 68.9776 21.9559C66.6551 19.5883 65.4938 16.6569 65.4938 13.1618C65.4938 9.66676 66.6551 6.74668 68.9776 4.4016C71.3227 2.03396 74.2653 0.850146 77.8055 0.850146C79.9251 0.850146 81.8868 1.34622 83.6907 2.33837C85.4947 3.30798 86.9152 4.63836 87.9525 6.32952L83.2849 9.03539C82.7662 8.11089 82.0221 7.4006 81.0525 6.90452C80.0829 6.3859 79.0006 6.12659 77.8055 6.12659C75.7084 6.12659 74.0285 6.76923 72.7658 8.05451C71.5256 9.3398 70.9055 11.0422 70.9055 13.1618C70.9055 15.2814 71.5256 16.9839 72.7658 18.2692C74.0285 19.5544 75.7084 20.1971 77.8055 20.1971C79.0006 20.1971 80.0829 19.9378 81.0525 19.4192C82.0447 18.9005 82.7888 18.1902 83.2849 17.2883L87.9525 19.9941C86.9378 21.6853 85.5285 23.027 83.7246 24.0191C81.9207 24.9887 79.9476 25.4735 77.8055 25.4735ZM99.5454 7.61481C101.349 7.61481 102.849 8.23491 104.044 9.47509C105.262 10.7153 105.87 12.429 105.87 14.6162V25H100.797V15.3604C100.797 14.3682 100.515 13.6128 99.9513 13.0942C99.4101 12.553 98.7111 12.2824 97.8543 12.2824C96.8847 12.2824 96.118 12.5756 95.5543 13.1618C94.9906 13.7481 94.7087 14.6162 94.7087 15.7662V25H89.6352V1.32367H94.7087V9.67803C95.7234 8.30255 97.3356 7.61481 99.5454 7.61481ZM119.265 8.08834H124.338V25H119.265V23.4103C118.25 24.7858 116.638 25.4735 114.428 25.4735C112.624 25.4735 111.113 24.8534 109.896 23.6132C108.701 22.3731 108.103 20.6593 108.103 18.4721V8.08834H113.176V17.728C113.176 18.7201 113.447 19.4868 113.988 20.028C114.552 20.5466 115.262 20.8059 116.119 20.8059C117.089 20.8059 117.855 20.5128 118.419 19.9265C118.983 19.3402 119.265 18.4721 119.265 17.3221V8.08834ZM145.985 7.61481C147.925 7.61481 149.48 8.25746 150.653 9.54274C151.826 10.8055 152.412 12.4966 152.412 14.6162V25H147.338V15.0559C147.338 14.1991 147.124 13.5226 146.696 13.0265C146.29 12.5305 145.692 12.2824 144.903 12.2824C144.069 12.2824 143.415 12.5643 142.941 13.128C142.49 13.6917 142.265 14.4697 142.265 15.4618V25H137.191V15.0559C137.191 14.1991 136.977 13.5226 136.549 13.0265C136.143 12.5305 135.545 12.2824 134.756 12.2824C133.922 12.2824 133.268 12.5643 132.794 13.128C132.343 13.6917 132.118 14.4697 132.118 15.4618V25H127.044V8.08834H132.118V9.64421C133.042 8.29128 134.553 7.61481 136.65 7.61481C138.612 7.61481 140.089 8.35893 141.081 9.84715C142.118 8.35893 143.753 7.61481 145.985 7.61481Z" fill="#202020"/>
</svg>
