<svg width="183" height="56" viewBox="0 0 183 56" fill="none" xmlns="http://www.w3.org/2000/svg">
<rect width="183" height="56" rx="4" fill="url(#paint0_linear_1_72)"/>
<path fill-rule="evenodd" clip-rule="evenodd" d="M47.8333 39.9333C48.8167 38.4333 49.1833 37.6666 49.9333 35.9833C44.4 33.8833 43.5167 25.9999 48.9833 22.9833C47.3167 20.8833 44.9667 19.6666 42.75 19.6666C41.15 19.6666 40.05 20.0833 39.0666 20.4666C38.2333 20.7833 37.4833 21.0666 36.55 21.0666C35.55 21.0666 34.6667 20.75 33.7333 20.4166C32.7167 20.05 31.65 19.6666 30.3166 19.6666C27.8333 19.6666 25.1833 21.1833 23.5 23.7833C21.1333 27.45 21.55 34.3166 25.3667 40.1833C26.7333 42.2833 28.5667 44.6333 30.95 44.6666C31.95 44.6833 32.6 44.3833 33.3167 44.0667C34.1333 43.7 35.0166 43.2999 36.5666 43.2999C38.1166 43.2833 38.9833 43.7 39.8 44.0667C40.5 44.3833 41.1333 44.6833 42.1167 44.6666C44.5333 44.6333 46.4667 42.0333 47.8333 39.9333Z" fill="white"/>
<path fill-rule="evenodd" clip-rule="evenodd" d="M42.4 11.3334C42.6667 13.1667 41.9167 14.9834 40.9333 16.2501C39.8833 17.6167 38.05 18.6834 36.2833 18.6167C35.9667 16.85 36.7833 15.0334 37.7833 13.8167C38.9 12.4834 40.7833 11.45 42.4 11.3334Z" fill="white"/>
<path d="M68.524 10.9C69.7633 10.9 70.7903 11.342 71.605 12.226C72.4283 13.1013 72.84 14.176 72.84 15.45C72.84 16.724 72.4283 17.803 71.605 18.687C70.7903 19.5623 69.7633 20 68.524 20H64.975V10.9H68.524ZM68.524 18.856C69.4513 18.856 70.2097 18.531 70.799 17.881C71.3883 17.231 71.683 16.4207 71.683 15.45C71.683 14.4793 71.3883 13.669 70.799 13.019C70.2097 12.369 69.4513 12.044 68.524 12.044H66.184V18.856H68.524ZM79.6751 19.181C79.0077 19.8397 78.1974 20.169 77.2441 20.169C76.2907 20.169 75.4804 19.8397 74.8131 19.181C74.1544 18.5223 73.8251 17.712 73.8251 16.75C73.8251 15.788 74.1544 14.9777 74.8131 14.319C75.4804 13.6603 76.2907 13.331 77.2441 13.331C78.1974 13.331 79.0077 13.6603 79.6751 14.319C80.3424 14.9777 80.6761 15.788 80.6761 16.75C80.6761 17.712 80.3424 18.5223 79.6751 19.181ZM77.2441 19.064C77.8941 19.064 78.4401 18.843 78.8821 18.401C79.3241 17.959 79.5451 17.4087 79.5451 16.75C79.5451 16.0913 79.3241 15.541 78.8821 15.099C78.4401 14.657 77.8941 14.436 77.2441 14.436C76.6027 14.436 76.0611 14.657 75.6191 15.099C75.1771 15.541 74.9561 16.0913 74.9561 16.75C74.9561 17.4087 75.1771 17.959 75.6191 18.401C76.0611 18.843 76.6027 19.064 77.2441 19.064ZM89.4125 13.5H90.5955L88.5805 20H87.4235L85.9025 15.19L84.3815 20H83.2245L81.2095 13.5H82.3925L83.8225 18.44L85.3565 13.5H86.4485L87.9825 18.453L89.4125 13.5ZM94.9964 13.331C95.759 13.331 96.37 13.5737 96.8294 14.059C97.2887 14.5357 97.5184 15.1857 97.5184 16.009V20H96.3874V16.074C96.3874 15.5453 96.2444 15.138 95.9584 14.852C95.6724 14.5573 95.278 14.41 94.7754 14.41C94.212 14.41 93.757 14.5877 93.4104 14.943C93.0637 15.2897 92.8904 15.827 92.8904 16.555V20H91.7594V13.5H92.8904V14.436C93.3497 13.6993 94.0517 13.331 94.9964 13.331ZM99.0973 20V10.51H100.228V20H99.0973ZM107.44 19.181C106.772 19.8397 105.962 20.169 105.009 20.169C104.055 20.169 103.245 19.8397 102.578 19.181C101.919 18.5223 101.59 17.712 101.59 16.75C101.59 15.788 101.919 14.9777 102.578 14.319C103.245 13.6603 104.055 13.331 105.009 13.331C105.962 13.331 106.772 13.6603 107.44 14.319C108.107 14.9777 108.441 15.788 108.441 16.75C108.441 17.712 108.107 18.5223 107.44 19.181ZM105.009 19.064C105.659 19.064 106.205 18.843 106.647 18.401C107.089 17.959 107.31 17.4087 107.31 16.75C107.31 16.0913 107.089 15.541 106.647 15.099C106.205 14.657 105.659 14.436 105.009 14.436C104.367 14.436 103.826 14.657 103.384 15.099C102.942 15.541 102.721 16.0913 102.721 16.75C102.721 17.4087 102.942 17.959 103.384 18.401C103.826 18.843 104.367 19.064 105.009 19.064ZM115.156 13.5H116.287V20H115.156V18.882C114.593 19.74 113.774 20.169 112.699 20.169C111.789 20.169 111.013 19.8397 110.372 19.181C109.731 18.5137 109.41 17.7033 109.41 16.75C109.41 15.7967 109.731 14.9907 110.372 14.332C111.013 13.6647 111.789 13.331 112.699 13.331C113.774 13.331 114.593 13.76 115.156 14.618V13.5ZM112.842 19.077C113.501 19.077 114.051 18.856 114.493 18.414C114.935 17.9633 115.156 17.4087 115.156 16.75C115.156 16.0913 114.935 15.541 114.493 15.099C114.051 14.6483 113.501 14.423 112.842 14.423C112.192 14.423 111.646 14.6483 111.204 15.099C110.762 15.541 110.541 16.0913 110.541 16.75C110.541 17.4087 110.762 17.9633 111.204 18.414C111.646 18.856 112.192 19.077 112.842 19.077ZM123.383 10.9H124.514V20H123.383V18.882C122.819 19.74 122 20.169 120.926 20.169C120.016 20.169 119.24 19.8397 118.599 19.181C117.957 18.5137 117.637 17.7033 117.637 16.75C117.637 15.7967 117.957 14.9907 118.599 14.332C119.24 13.6647 120.016 13.331 120.926 13.331C122 13.331 122.819 13.76 123.383 14.618V10.9ZM121.069 19.077C121.727 19.077 122.278 18.856 122.72 18.414C123.162 17.9633 123.383 17.4087 123.383 16.75C123.383 16.0913 123.162 15.541 122.72 15.099C122.278 14.6483 121.727 14.423 121.069 14.423C120.419 14.423 119.873 14.6483 119.431 15.099C118.989 15.541 118.768 16.0913 118.768 16.75C118.768 17.4087 118.989 17.9633 119.431 18.414C119.873 18.856 120.419 19.077 121.069 19.077ZM134.963 19.181C134.296 19.8397 133.485 20.169 132.532 20.169C131.579 20.169 130.768 19.8397 130.101 19.181C129.442 18.5223 129.113 17.712 129.113 16.75C129.113 15.788 129.442 14.9777 130.101 14.319C130.768 13.6603 131.579 13.331 132.532 13.331C133.485 13.331 134.296 13.6603 134.963 14.319C135.63 14.9777 135.964 15.788 135.964 16.75C135.964 17.712 135.63 18.5223 134.963 19.181ZM132.532 19.064C133.182 19.064 133.728 18.843 134.17 18.401C134.612 17.959 134.833 17.4087 134.833 16.75C134.833 16.0913 134.612 15.541 134.17 15.099C133.728 14.657 133.182 14.436 132.532 14.436C131.891 14.436 131.349 14.657 130.907 15.099C130.465 15.541 130.244 16.0913 130.244 16.75C130.244 17.4087 130.465 17.959 130.907 18.401C131.349 18.843 131.891 19.064 132.532 19.064ZM140.534 13.331C141.297 13.331 141.908 13.5737 142.367 14.059C142.827 14.5357 143.056 15.1857 143.056 16.009V20H141.925V16.074C141.925 15.5453 141.782 15.138 141.496 14.852C141.21 14.5573 140.816 14.41 140.313 14.41C139.75 14.41 139.295 14.5877 138.948 14.943C138.602 15.2897 138.428 15.827 138.428 16.555V20H137.297V13.5H138.428V14.436C138.888 13.6993 139.59 13.331 140.534 13.331ZM151.421 14.592H149.692V18.115C149.692 18.4357 149.753 18.6653 149.874 18.804C150.004 18.934 150.199 19.0033 150.459 19.012C150.719 19.012 151.04 19.0033 151.421 18.986V20C150.433 20.13 149.71 20.052 149.25 19.766C148.791 19.4713 148.561 18.921 148.561 18.115V14.592H147.274V13.5H148.561V12.018L149.692 11.68V13.5H151.421V14.592ZM155.997 13.331C156.76 13.331 157.371 13.5737 157.83 14.059C158.29 14.5357 158.519 15.1857 158.519 16.009V20H157.388V16.074C157.388 15.5453 157.245 15.138 156.959 14.852C156.673 14.5573 156.279 14.41 155.776 14.41C155.213 14.41 154.758 14.5877 154.411 14.943C154.065 15.2897 153.891 15.827 153.891 16.555V20H152.76V10.9H153.891V14.436C154.351 13.6993 155.053 13.331 155.997 13.331ZM160.891 17.27C161.004 17.8507 161.268 18.3013 161.684 18.622C162.109 18.9427 162.629 19.103 163.244 19.103C164.102 19.103 164.726 18.7867 165.116 18.154L166.078 18.7C165.446 19.6793 164.492 20.169 163.218 20.169C162.187 20.169 161.346 19.8483 160.696 19.207C160.055 18.557 159.734 17.738 159.734 16.75C159.734 15.7707 160.051 14.956 160.683 14.306C161.316 13.656 162.135 13.331 163.14 13.331C164.094 13.331 164.869 13.669 165.467 14.345C166.074 15.0123 166.377 15.8183 166.377 16.763C166.377 16.9277 166.364 17.0967 166.338 17.27H160.891ZM163.14 14.397C162.534 14.397 162.031 14.5703 161.632 14.917C161.234 15.255 160.987 15.71 160.891 16.282H165.233C165.138 15.6667 164.895 15.1987 164.505 14.878C164.115 14.5573 163.66 14.397 163.14 14.397Z" fill="white"/>
<path d="M72.416 41L71.632 38.744H66.864L66.08 41H64.08L68.144 29.8H70.352L74.4 41H72.416ZM67.472 37.016H71.024L69.248 31.96L67.472 37.016ZM80.1204 32.792C81.219 32.792 82.1577 33.2027 82.9364 34.024C83.715 34.8347 84.1044 35.8267 84.1044 37C84.1044 38.184 83.715 39.1813 82.9364 39.992C82.1577 40.8027 81.219 41.208 80.1204 41.208C78.9044 41.208 77.971 40.76 77.3204 39.864V44.2H75.5924V33H77.3204V34.152C77.971 33.2453 78.9044 32.792 80.1204 32.792ZM78.0404 38.84C78.5204 39.32 79.123 39.56 79.8484 39.56C80.5737 39.56 81.1764 39.32 81.6564 38.84C82.1364 38.3493 82.3764 37.736 82.3764 37C82.3764 36.264 82.1364 35.656 81.6564 35.176C81.1764 34.6853 80.5737 34.44 79.8484 34.44C79.123 34.44 78.5204 34.6853 78.0404 35.176C77.5604 35.656 77.3204 36.264 77.3204 37C77.3204 37.736 77.5604 38.3493 78.0404 38.84ZM90.2985 32.792C91.3972 32.792 92.3358 33.2027 93.1145 34.024C93.8932 34.8347 94.2825 35.8267 94.2825 37C94.2825 38.184 93.8932 39.1813 93.1145 39.992C92.3358 40.8027 91.3972 41.208 90.2985 41.208C89.0825 41.208 88.1492 40.76 87.4985 39.864V44.2H85.7705V33H87.4985V34.152C88.1492 33.2453 89.0825 32.792 90.2985 32.792ZM88.2185 38.84C88.6985 39.32 89.3012 39.56 90.0265 39.56C90.7518 39.56 91.3545 39.32 91.8345 38.84C92.3145 38.3493 92.5545 37.736 92.5545 37C92.5545 36.264 92.3145 35.656 91.8345 35.176C91.3545 34.6853 90.7518 34.44 90.0265 34.44C89.3012 34.44 88.6985 34.6853 88.2185 35.176C87.7385 35.656 87.4985 36.264 87.4985 37C87.4985 37.736 87.7385 38.3493 88.2185 38.84ZM103.889 41.208C102.811 41.208 101.894 40.9627 101.137 40.472C100.39 39.9813 99.8673 39.3093 99.5686 38.456L101.153 37.528C101.601 38.7867 102.529 39.416 103.937 39.416C104.63 39.416 105.147 39.2827 105.489 39.016C105.841 38.7387 106.017 38.3813 106.017 37.944C106.017 37.4853 105.83 37.1387 105.457 36.904C105.083 36.6587 104.422 36.392 103.473 36.104C102.939 35.944 102.507 35.7947 102.177 35.656C101.846 35.5173 101.494 35.3253 101.121 35.08C100.758 34.824 100.486 34.5093 100.305 34.136C100.123 33.7627 100.033 33.3253 100.033 32.824C100.033 31.832 100.385 31.048 101.089 30.472C101.793 29.8853 102.641 29.592 103.633 29.592C104.529 29.592 105.313 29.8107 105.985 30.248C106.657 30.6853 107.174 31.288 107.537 32.056L105.985 32.952C105.515 31.9067 104.731 31.384 103.633 31.384C103.099 31.384 102.673 31.512 102.353 31.768C102.033 32.0133 101.873 32.3493 101.873 32.776C101.873 33.192 102.033 33.5227 102.353 33.768C102.683 34.0027 103.275 34.2533 104.129 34.52C104.555 34.6587 104.865 34.7653 105.057 34.84C105.259 34.904 105.537 35.0107 105.889 35.16C106.251 35.3093 106.523 35.4587 106.705 35.608C106.886 35.7573 107.078 35.944 107.281 36.168C107.494 36.392 107.643 36.648 107.729 36.936C107.814 37.224 107.857 37.5493 107.857 37.912C107.857 38.9253 107.489 39.7307 106.753 40.328C106.027 40.9147 105.073 41.208 103.889 41.208ZM113.66 34.664H111.676V38.504C111.676 38.8347 111.75 39.0747 111.9 39.224C112.049 39.3627 112.268 39.4427 112.556 39.464C112.854 39.4747 113.222 39.4693 113.66 39.448V41C112.337 41.16 111.388 41.048 110.812 40.664C110.236 40.2693 109.948 39.5493 109.948 38.504V34.664H108.476V33H109.948V31.272L111.676 30.76V33H113.66V34.664ZM118.775 41.208C117.601 41.208 116.604 40.8027 115.783 39.992C114.961 39.1813 114.551 38.184 114.551 37C114.551 35.816 114.961 34.8187 115.783 34.008C116.604 33.1973 117.601 32.792 118.775 32.792C119.959 32.792 120.956 33.1973 121.767 34.008C122.588 34.8187 122.999 35.816 122.999 37C122.999 38.184 122.588 39.1813 121.767 39.992C120.956 40.8027 119.959 41.208 118.775 41.208ZM116.999 38.808C117.479 39.288 118.071 39.528 118.775 39.528C119.479 39.528 120.071 39.288 120.551 38.808C121.031 38.328 121.271 37.7253 121.271 37C121.271 36.2747 121.031 35.672 120.551 35.192C120.071 34.712 119.479 34.472 118.775 34.472C118.071 34.472 117.479 34.712 116.999 35.192C116.519 35.672 116.279 36.2747 116.279 37C116.279 37.7253 116.519 38.328 116.999 38.808ZM126.389 34.344C126.826 33.352 127.648 32.856 128.853 32.856V34.728C128.192 34.6853 127.616 34.8453 127.125 35.208C126.634 35.56 126.389 36.1467 126.389 36.968V41H124.661V33H126.389V34.344ZM131.215 37.736C131.343 38.344 131.636 38.8133 132.095 39.144C132.554 39.464 133.114 39.624 133.775 39.624C134.692 39.624 135.38 39.2933 135.839 38.632L137.263 39.464C136.474 40.6267 135.306 41.208 133.759 41.208C132.458 41.208 131.407 40.8133 130.607 40.024C129.807 39.224 129.407 38.216 129.407 37C129.407 35.8053 129.802 34.808 130.591 34.008C131.38 33.1973 132.394 32.792 133.631 32.792C134.804 32.792 135.764 33.2027 136.511 34.024C137.268 34.8453 137.647 35.8427 137.647 37.016C137.647 37.1973 137.626 37.4373 137.583 37.736H131.215ZM131.199 36.328H135.903C135.786 35.6773 135.514 35.1867 135.087 34.856C134.671 34.5253 134.18 34.36 133.615 34.36C132.975 34.36 132.442 34.536 132.015 34.888C131.588 35.24 131.316 35.72 131.199 36.328Z" fill="white"/>
<defs>
<linearGradient id="paint0_linear_1_72" x1="-42.2793" y1="-16.24" x2="176.193" y2="72.7176" gradientUnits="userSpaceOnUse">
<stop/>
<stop offset="1" stop-color="#434343"/>
</linearGradient>
</defs>
</svg>
