<svg width="103" height="22" viewBox="0 0 103 22" fill="none" xmlns="http://www.w3.org/2000/svg">
<path d="M5.39741 16.6466C4.87902 17.1649 4.2546 17.4241 3.52414 17.4241C2.79368 17.4241 2.16925 17.1649 1.65086 16.6466C1.13247 16.1282 0.873276 15.5037 0.873276 14.7733C0.873276 14.0428 1.12069 13.4184 1.61552 12.9C2.13391 12.3816 2.77012 12.1224 3.52414 12.1224C4.2546 12.1224 4.87902 12.3816 5.39741 12.9C5.91581 13.4184 6.175 14.0428 6.175 14.7733C6.175 15.5037 5.91581 16.1282 5.39741 16.6466ZM14.368 1.16552C15.861 1.16552 17.1051 1.66317 18.1004 2.65848C19.1108 3.65379 19.616 4.89039 19.616 6.36827C19.616 7.83108 19.1108 9.06768 18.1004 10.0781C17.1051 11.0734 15.861 11.571 14.368 11.571H11.1333V17H8.53189V1.16552H14.368ZM14.368 9.128C15.1371 9.128 15.7705 8.87163 16.2682 8.3589C16.7658 7.83108 17.0147 7.16754 17.0147 6.36827C17.0147 5.56901 16.7658 4.91301 16.2682 4.40027C15.7705 3.87246 15.1371 3.60855 14.368 3.60855H11.1333V9.128H14.368ZM29.2001 5.68965H31.6432V17H29.2001V15.3713C28.2802 16.6531 26.9607 17.2941 25.2415 17.2941C23.6882 17.2941 22.3611 16.721 21.2603 15.5749C20.1594 14.4137 19.609 13.0037 19.609 11.3448C19.609 9.6709 20.1594 8.26087 21.2603 7.11476C22.3611 5.96864 23.6882 5.39559 25.2415 5.39559C26.9607 5.39559 28.2802 6.02896 29.2001 7.29572V5.68965ZM23.0699 13.9462C23.7486 14.6248 24.6006 14.9641 25.6261 14.9641C26.6515 14.9641 27.5036 14.6248 28.1822 13.9462C28.8608 13.2525 29.2001 12.3854 29.2001 11.3448C29.2001 10.3043 28.8608 9.44469 28.1822 8.76607C27.5036 8.07237 26.6515 7.72552 25.6261 7.72552C24.6006 7.72552 23.7486 8.07237 23.0699 8.76607C22.3913 9.44469 22.052 10.3043 22.052 11.3448C22.052 12.3854 22.3913 13.2525 23.0699 13.9462ZM41.4353 5.68965H44.0367L39.6935 17.3619C38.6077 20.2875 36.7679 21.6749 34.174 21.5241V19.2394C34.9431 19.2847 35.5614 19.1188 36.0289 18.7418C36.4964 18.3799 36.881 17.8068 37.1826 17.0226L37.2957 16.7964L32.5001 5.68965H35.1693L38.5398 13.901L41.4353 5.68965Z" fill="#7B9EE0"/>
<path d="M52.3731 17.3167C50.0055 17.3167 48.0375 16.5325 46.4691 14.9641C44.9158 13.3807 44.1392 11.4202 44.1392 9.08276C44.1392 6.74529 44.9158 4.79237 46.4691 3.224C48.0375 1.64055 50.0055 0.848825 52.3731 0.848825C53.7907 0.848825 55.1027 1.1806 56.3091 1.84414C57.5155 2.4926 58.4656 3.38234 59.1593 4.51338L56.0376 6.32303C55.6908 5.70473 55.1931 5.2297 54.5447 4.89793C53.8962 4.55108 53.1724 4.37765 52.3731 4.37765C50.9706 4.37765 49.8471 4.80745 49.0026 5.66703C48.1732 6.52662 47.7585 7.66519 47.7585 9.08276C47.7585 10.5003 48.1732 11.6389 49.0026 12.4985C49.8471 13.3581 50.9706 13.7879 52.3731 13.7879C53.1724 13.7879 53.8962 13.6144 54.5447 13.2676C55.2082 12.9207 55.7059 12.4457 56.0376 11.8425L59.1593 13.6521C58.4807 14.7832 57.5381 15.6805 56.3317 16.344C55.1253 16.9925 53.8057 17.3167 52.3731 17.3167ZM66.9125 5.37296C68.119 5.37296 69.1218 5.78768 69.9211 6.6171C70.7354 7.44653 71.1426 8.59264 71.1426 10.0554V17H67.7495V10.5531C67.7495 9.88956 67.561 9.38437 67.184 9.03752C66.8221 8.67559 66.3546 8.49462 65.7815 8.49462C65.133 8.49462 64.6203 8.69067 64.2433 9.08276C63.8663 9.47485 63.6778 10.0554 63.6778 10.8246V17H60.2847V1.16552H63.6778V6.75283C64.3564 5.83292 65.4347 5.37296 66.9125 5.37296ZM80.1006 5.68965H83.4937V17H80.1006V15.9368C79.422 16.8567 78.3437 17.3167 76.8658 17.3167C75.6594 17.3167 74.649 16.902 73.8346 16.0726C73.0354 15.2431 72.6358 14.097 72.6358 12.6342V5.68965H76.0289V12.1366C76.0289 12.8001 76.2098 13.3128 76.5718 13.6748C76.9488 14.0216 77.4238 14.195 77.9969 14.195C78.6453 14.195 79.1581 13.999 79.5351 13.6069C79.9121 13.2148 80.1006 12.6342 80.1006 11.8651V5.68965ZM97.9711 5.37296C99.268 5.37296 100.309 5.80276 101.093 6.66234C101.877 7.50685 102.269 8.63788 102.269 10.0554V17H98.8759V10.3495C98.8759 9.77646 98.7327 9.32405 98.4461 8.99228C98.1747 8.6605 97.7751 8.49462 97.2472 8.49462C96.6893 8.49462 96.2519 8.68313 95.9352 9.06014C95.6336 9.43715 95.4828 9.95742 95.4828 10.621V17H92.0897V10.3495C92.0897 9.77646 91.9465 9.32405 91.6599 8.99228C91.3885 8.6605 90.9889 8.49462 90.461 8.49462C89.9031 8.49462 89.4657 8.68313 89.149 9.06014C88.8474 9.43715 88.6966 9.95742 88.6966 10.621V17H85.3035V5.68965H88.6966V6.73021C89.3149 5.82538 90.3253 5.37296 91.7278 5.37296C93.0398 5.37296 94.0276 5.87062 94.6911 6.86593C95.3848 5.87062 96.4781 5.37296 97.9711 5.37296Z" fill="#202020"/>
</svg>
