<svg width="50" height="50" viewBox="0 0 50 50" fill="none" xmlns="http://www.w3.org/2000/svg">
<rect width="50" height="50" rx="8" fill="#F7F9FF"/>
<path d="M31.6667 33.5734H26.3333L20.4 37.52C19.52 38.1067 18.3333 37.4801 18.3333 36.4134V33.5734C14.3333 33.5734 11.6667 30.9067 11.6667 26.9067V18.9067C11.6667 14.9067 14.3333 12.24 18.3333 12.24H31.6667C35.6667 12.24 38.3333 14.9067 38.3333 18.9067V26.9067C38.3333 30.9067 35.6667 33.5734 31.6667 33.5734Z" stroke="#7B9EE0" stroke-width="2" stroke-miterlimit="10" stroke-linecap="round" stroke-linejoin="round"/>
<path d="M25 24.1467V23.8667C25 22.9601 25.56 22.48 26.12 22.0934C26.6667 21.72 27.2133 21.24 27.2133 20.36C27.2133 19.1334 26.2267 18.1467 25 18.1467C23.7733 18.1467 22.7867 19.1334 22.7867 20.36" stroke="#7B9EE0" stroke-width="2" stroke-linecap="round" stroke-linejoin="round"/>
<path d="M24.994 27.3334H25.006" stroke="#7B9EE0" stroke-width="2" stroke-linecap="round" stroke-linejoin="round"/>
</svg>
